<svg width="220" height="55" viewBox="0 0 220 55" fill="none" xmlns="http://www.w3.org/2000/svg">
<rect width="220" height="55" fill="#134e4a"/>
<path d="M113.854 41.2827C113.239 41.2827 112.774 41.0817 112.46 40.6796C112.158 40.265 111.957 39.7247 111.857 39.0588C111.769 38.3929 111.725 37.6831 111.725 36.9292C111.725 36.2256 111.737 35.5032 111.762 34.7619C111.8 34.0206 111.819 33.3171 111.819 32.6512C111.819 31.3822 111.718 30.4085 111.517 29.73C111.329 29.039 110.952 28.5615 110.387 28.2977C109.821 28.0213 108.992 27.8831 107.899 27.8831H106.655V40.0765H108.427V41H103.187V40.0765H104.978V15.5388H103.187V14.6154H109.086C110.041 14.6154 110.87 14.829 111.574 15.2562C112.29 15.6708 112.849 16.3304 113.251 17.235C113.653 18.1271 113.854 19.2955 113.854 20.7404C113.854 21.846 113.741 22.8135 113.515 23.6427C113.289 24.4594 112.987 25.1378 112.61 25.6781C112.233 26.2058 111.794 26.6141 111.291 26.9031C110.789 27.1795 110.273 27.3428 109.746 27.3931C110.814 27.4056 111.618 27.6444 112.158 28.1092C112.698 28.5741 113.063 29.2337 113.251 30.0881C113.44 30.9424 113.534 31.9538 113.534 33.1223C113.534 33.7379 113.521 34.3724 113.496 35.0258C113.471 35.6665 113.458 36.301 113.458 36.9292C113.458 37.369 113.477 37.859 113.515 38.3992C113.553 38.9269 113.628 39.3855 113.741 39.775C113.854 40.1519 114.024 40.3404 114.25 40.3404C114.351 40.3404 114.445 40.2776 114.533 40.1519C114.621 40.0263 114.671 39.8881 114.683 39.7373H115.532C115.519 40.0765 115.425 40.3592 115.249 40.5854C115.086 40.8115 114.878 40.9812 114.627 41.0942C114.376 41.2199 114.118 41.2827 113.854 41.2827ZM106.655 26.9408H108.464C109.356 26.9408 110.066 26.6644 110.594 26.1115C111.134 25.5462 111.524 24.8049 111.762 23.8877C112.001 22.9579 112.12 21.934 112.12 20.8158C112.12 19.7855 112.032 18.8746 111.857 18.0831C111.681 17.2915 111.348 16.6696 110.858 16.2173C110.368 15.765 109.652 15.5388 108.709 15.5388H106.655V26.9408ZM121.301 41.4146C120.434 41.4146 119.724 41.1131 119.171 40.51C118.619 39.8944 118.185 39.0903 117.871 38.0977C117.557 37.0926 117.337 35.9806 117.211 34.7619C117.086 33.5432 117.023 32.3245 117.023 31.1058C117.023 29.485 117.124 28.0527 117.325 26.8088C117.526 25.565 117.815 24.5222 118.191 23.6804C118.581 22.8386 119.033 22.2041 119.548 21.7769C120.076 21.3497 120.654 21.1362 121.282 21.1362C122.011 21.1362 122.62 21.3874 123.11 21.89C123.6 22.3926 123.99 23.0522 124.279 23.8688C124.568 24.6855 124.769 25.5838 124.882 26.5638C125.008 27.5313 125.07 28.4924 125.07 29.4473C125.07 29.686 125.07 29.9247 125.07 30.1635C125.07 30.4022 125.064 30.6346 125.051 30.8608H118.531V29.9373H123.318C123.318 28.4547 123.261 27.1229 123.148 25.9419C123.035 24.7483 122.834 23.806 122.545 23.115C122.256 22.4114 121.835 22.0596 121.282 22.0596C120.767 22.0596 120.321 22.3988 119.944 23.0773C119.567 23.7432 119.278 24.7106 119.077 25.9796C118.876 27.236 118.776 28.7626 118.776 30.5592C118.776 31.7905 118.807 32.9904 118.87 34.1588C118.933 35.3273 119.052 36.3827 119.228 37.325C119.404 38.2673 119.668 39.0212 120.02 39.5865C120.371 40.1394 120.836 40.4158 121.414 40.4158C122.168 40.4158 122.746 40.1833 123.148 39.7185C123.563 39.2536 123.839 38.7824 123.977 38.305L124.806 38.7196C124.593 39.4358 124.172 40.064 123.544 40.6042C122.928 41.1445 122.181 41.4146 121.301 41.4146ZM130.82 41.3769C130.142 41.3769 129.533 41.2136 128.992 40.8869C128.452 40.5477 128.025 40.0263 127.711 39.3227C127.397 38.6191 127.24 37.7208 127.24 36.6277C127.24 35.4718 127.447 34.5106 127.862 33.7442C128.289 32.9653 128.81 32.3119 129.426 31.7842C130.042 31.244 130.657 30.754 131.273 30.3142C131.901 29.8745 132.422 29.4222 132.837 28.9573C133.252 28.4799 133.459 27.9082 133.459 27.2423C133.459 26.2623 133.39 25.3891 133.252 24.6227C133.126 23.8437 132.9 23.2344 132.573 22.7946C132.259 22.3549 131.807 22.135 131.216 22.135C130.575 22.135 130.035 22.3737 129.595 22.8512C129.156 23.3286 128.936 23.8626 128.936 24.4531C128.936 24.7169 128.961 24.9305 129.011 25.0938C129.074 25.2572 129.131 25.4205 129.181 25.5838C129.231 25.7346 129.256 25.9294 129.256 26.1681C129.256 26.5073 129.187 26.7963 129.049 27.035C128.911 27.2612 128.691 27.3742 128.389 27.3742C128.1 27.3742 127.887 27.2486 127.749 26.9973C127.623 26.7335 127.56 26.3754 127.56 25.9231C127.56 25.0562 127.717 24.2583 128.031 23.5296C128.345 22.8009 128.785 22.2229 129.35 21.7958C129.928 21.356 130.607 21.1362 131.386 21.1362C132.165 21.1362 132.831 21.3435 133.384 21.7581C133.949 22.1727 134.382 22.8197 134.684 23.6992C134.998 24.5787 135.155 25.7221 135.155 27.1292V38.9835C135.155 39.4483 135.218 39.7687 135.344 39.9446C135.482 40.1079 135.658 40.1896 135.871 40.1896C136.047 40.1896 136.198 40.1582 136.324 40.0954C136.462 40.02 136.562 39.9446 136.625 39.8692L137.096 40.6985C136.958 40.8241 136.744 40.9372 136.455 41.0377C136.167 41.1382 135.84 41.1885 135.475 41.1885C135.149 41.1885 134.847 41.1256 134.571 41C134.307 40.8744 134.087 40.6796 133.911 40.4158C133.748 40.1519 133.66 39.8127 133.647 39.3981C133.572 39.6494 133.421 39.9321 133.195 40.2462C132.969 40.5603 132.661 40.8241 132.272 41.0377C131.895 41.2638 131.411 41.3769 130.82 41.3769ZM131.122 40.2838C131.612 40.2838 132.027 40.1079 132.366 39.7562C132.718 39.3918 132.988 38.9709 133.176 38.4935C133.365 38.0035 133.459 37.5763 133.459 37.2119V29.3531C133.434 29.7049 133.195 30.0755 132.743 30.465C132.303 30.8419 131.8 31.2879 131.235 31.8031C130.67 32.3056 130.167 32.9338 129.727 33.6877C129.3 34.429 129.087 35.3462 129.087 36.4392C129.087 37.6831 129.244 38.6379 129.558 39.3038C129.884 39.9572 130.406 40.2838 131.122 40.2838ZM138.223 41V40.0765H139.844V13.6542H138.223V12.7308H141.502V40.0765H143.142V41H138.223ZM149.313 41.4146C148.446 41.4146 147.736 41.1131 147.183 40.51C146.63 39.8944 146.197 39.0903 145.883 38.0977C145.569 37.0926 145.349 35.9806 145.223 34.7619C145.097 33.5432 145.035 32.3245 145.035 31.1058C145.035 29.485 145.135 28.0527 145.336 26.8088C145.537 25.565 145.826 24.5222 146.203 23.6804C146.593 22.8386 147.045 22.2041 147.56 21.7769C148.088 21.3497 148.666 21.1362 149.294 21.1362C150.023 21.1362 150.632 21.3874 151.122 21.89C151.612 22.3926 152.001 23.0522 152.29 23.8688C152.579 24.6855 152.78 25.5838 152.893 26.5638C153.019 27.5313 153.082 28.4924 153.082 29.4473C153.082 29.686 153.082 29.9247 153.082 30.1635C153.082 30.4022 153.076 30.6346 153.063 30.8608H146.542V29.9373H151.329C151.329 28.4547 151.273 27.1229 151.16 25.9419C151.047 24.7483 150.845 23.806 150.557 23.115C150.268 22.4114 149.847 22.0596 149.294 22.0596C148.779 22.0596 148.333 22.3988 147.956 23.0773C147.579 23.7432 147.29 24.7106 147.089 25.9796C146.888 27.236 146.787 28.7626 146.787 30.5592C146.787 31.7905 146.819 32.9904 146.882 34.1588C146.944 35.3273 147.064 36.3827 147.24 37.325C147.415 38.2673 147.679 39.0212 148.031 39.5865C148.383 40.1394 148.848 40.4158 149.426 40.4158C150.18 40.4158 150.758 40.1833 151.16 39.7185C151.574 39.2536 151.851 38.7824 151.989 38.305L152.818 38.7196C152.604 39.4358 152.184 40.064 151.555 40.6042C150.94 41.1445 150.192 41.4146 149.313 41.4146ZM158.983 41.4146C158.38 41.4146 157.909 41.3329 157.569 41.1696C157.23 41.0188 156.96 40.8681 156.759 40.7173C156.571 40.5665 156.401 40.4912 156.25 40.4912C156.124 40.4912 156.037 40.5351 155.986 40.6231C155.936 40.711 155.905 40.8367 155.892 41H155.157V35.7796H156.043C156.106 36.5712 156.194 37.2622 156.307 37.8527C156.432 38.4432 156.602 38.9332 156.816 39.3227C157.042 39.7122 157.324 40.0074 157.664 40.2085C158.015 40.3969 158.436 40.4912 158.926 40.4912C159.454 40.4912 159.875 40.3278 160.189 40.0012C160.503 39.6619 160.729 39.2536 160.867 38.7762C161.006 38.2862 161.075 37.8024 161.075 37.325C161.075 36.6465 160.981 35.9995 160.792 35.3838C160.616 34.7556 160.327 34.1274 159.925 33.4992C159.536 32.8585 159.014 32.18 158.361 31.4638C157.532 30.5467 156.816 29.5981 156.212 28.6181C155.622 27.6255 155.327 26.4445 155.327 25.075C155.327 24.2332 155.484 23.5233 155.798 22.9454C156.112 22.3549 156.527 21.9088 157.042 21.6073C157.557 21.2932 158.116 21.1362 158.719 21.1362C159.171 21.1362 159.542 21.1927 159.831 21.3058C160.12 21.4063 160.352 21.5131 160.528 21.6262C160.704 21.7267 160.849 21.7769 160.962 21.7769C161.05 21.7769 161.112 21.7329 161.15 21.645C161.2 21.5571 161.232 21.4314 161.244 21.2681H162.017V26.3188H161.131C161.081 25.4896 160.999 24.8049 160.886 24.2646C160.773 23.7118 160.622 23.2783 160.434 22.9642C160.246 22.6376 160.013 22.4114 159.737 22.2858C159.46 22.1476 159.127 22.0785 158.738 22.0785C158.097 22.0785 157.594 22.3172 157.23 22.7946C156.866 23.2595 156.684 23.9128 156.684 24.7546C156.684 25.6467 156.903 26.4822 157.343 27.2612C157.783 28.0401 158.43 28.9133 159.284 29.8808C160.013 30.6974 160.616 31.4701 161.094 32.1988C161.584 32.9276 161.948 33.6563 162.187 34.385C162.425 35.1012 162.545 35.8613 162.545 36.6654C162.545 37.5574 162.407 38.3615 162.13 39.0777C161.854 39.7938 161.445 40.3655 160.905 40.7927C160.377 41.2073 159.737 41.4146 158.983 41.4146ZM168.087 41.3392C167.71 41.3392 167.34 41.2701 166.975 41.1319C166.624 40.9937 166.335 40.7236 166.108 40.3215C165.882 39.9195 165.769 39.329 165.769 38.55V22.1915H163.677V21.2681H165.769C165.882 20.9665 165.989 20.5268 166.09 19.9488C166.19 19.3709 166.278 18.7364 166.353 18.0454C166.429 17.3544 166.479 16.6885 166.504 16.0477H167.465V21.2681H169.972V22.1915H167.465V39.1342C167.465 39.6368 167.56 39.976 167.748 40.1519C167.937 40.3153 168.138 40.3969 168.351 40.3969C168.615 40.3969 168.847 40.3341 169.048 40.2085C169.249 40.0703 169.4 39.9446 169.501 39.8315L170.047 40.5665C169.859 40.7676 169.589 40.9435 169.237 41.0942C168.885 41.2576 168.502 41.3392 168.087 41.3392ZM175.433 41.3769C174.754 41.3769 174.145 41.2136 173.605 40.8869C173.065 40.5477 172.637 40.0263 172.323 39.3227C172.009 38.6191 171.852 37.7208 171.852 36.6277C171.852 35.4718 172.059 34.5106 172.474 33.7442C172.901 32.9653 173.423 32.3119 174.038 31.7842C174.654 31.244 175.27 30.754 175.885 30.3142C176.513 29.8745 177.035 29.4222 177.449 28.9573C177.864 28.4799 178.071 27.9082 178.071 27.2423C178.071 26.2623 178.002 25.3891 177.864 24.6227C177.738 23.8437 177.512 23.2344 177.186 22.7946C176.871 22.3549 176.419 22.135 175.829 22.135C175.188 22.135 174.648 22.3737 174.208 22.8512C173.768 23.3286 173.548 23.8626 173.548 24.4531C173.548 24.7169 173.573 24.9305 173.624 25.0938C173.686 25.2572 173.743 25.4205 173.793 25.5838C173.843 25.7346 173.869 25.9294 173.869 26.1681C173.869 26.5073 173.8 26.7963 173.661 27.035C173.523 27.2612 173.303 27.3742 173.002 27.3742C172.713 27.3742 172.499 27.2486 172.361 26.9973C172.235 26.7335 172.172 26.3754 172.172 25.9231C172.172 25.0562 172.33 24.2583 172.644 23.5296C172.958 22.8009 173.397 22.2229 173.963 21.7958C174.541 21.356 175.219 21.1362 175.998 21.1362C176.777 21.1362 177.443 21.3435 177.996 21.7581C178.561 22.1727 178.995 22.8197 179.296 23.6992C179.61 24.5787 179.767 25.7221 179.767 27.1292V38.9835C179.767 39.4483 179.83 39.7687 179.956 39.9446C180.094 40.1079 180.27 40.1896 180.484 40.1896C180.66 40.1896 180.81 40.1582 180.936 40.0954C181.074 40.02 181.175 39.9446 181.237 39.8692L181.709 40.6985C181.57 40.8241 181.357 40.9372 181.068 41.0377C180.779 41.1382 180.452 41.1885 180.088 41.1885C179.761 41.1885 179.46 41.1256 179.183 41C178.919 40.8744 178.7 40.6796 178.524 40.4158C178.36 40.1519 178.272 39.8127 178.26 39.3981C178.184 39.6494 178.034 39.9321 177.807 40.2462C177.581 40.5603 177.273 40.8241 176.884 41.0377C176.507 41.2638 176.023 41.3769 175.433 41.3769ZM175.734 40.2838C176.224 40.2838 176.639 40.1079 176.978 39.7562C177.33 39.3918 177.6 38.9709 177.789 38.4935C177.977 38.0035 178.071 37.5763 178.071 37.2119V29.3531C178.046 29.7049 177.807 30.0755 177.355 30.465C176.915 30.8419 176.413 31.2879 175.847 31.8031C175.282 32.3056 174.78 32.9338 174.34 33.6877C173.913 34.429 173.699 35.3462 173.699 36.4392C173.699 37.6831 173.856 38.6379 174.17 39.3038C174.497 39.9572 175.018 40.2838 175.734 40.2838ZM186.418 41.3392C186.041 41.3392 185.671 41.2701 185.306 41.1319C184.954 40.9937 184.665 40.7236 184.439 40.3215C184.213 39.9195 184.1 39.329 184.1 38.55V22.1915H182.008V21.2681H184.1C184.213 20.9665 184.32 20.5268 184.42 19.9488C184.521 19.3709 184.609 18.7364 184.684 18.0454C184.76 17.3544 184.81 16.6885 184.835 16.0477H185.796V21.2681H188.303V22.1915H185.796V39.1342C185.796 39.6368 185.89 39.976 186.079 40.1519C186.267 40.3153 186.468 40.3969 186.682 40.3969C186.946 40.3969 187.178 40.3341 187.379 40.2085C187.58 40.0703 187.731 39.9446 187.832 39.8315L188.378 40.5665C188.19 40.7676 187.92 40.9435 187.568 41.0942C187.216 41.2576 186.833 41.3392 186.418 41.3392ZM193.888 41.4146C193.021 41.4146 192.311 41.1131 191.759 40.51C191.206 39.8944 190.772 39.0903 190.458 38.0977C190.144 37.0926 189.924 35.9806 189.799 34.7619C189.673 33.5432 189.61 32.3245 189.61 31.1058C189.61 29.485 189.711 28.0527 189.912 26.8088C190.113 25.565 190.402 24.5222 190.779 23.6804C191.168 22.8386 191.62 22.2041 192.136 21.7769C192.663 21.3497 193.241 21.1362 193.869 21.1362C194.598 21.1362 195.207 21.3874 195.697 21.89C196.187 22.3926 196.577 23.0522 196.866 23.8688C197.155 24.6855 197.356 25.5838 197.469 26.5638C197.595 27.5313 197.657 28.4924 197.657 29.4473C197.657 29.686 197.657 29.9247 197.657 30.1635C197.657 30.4022 197.651 30.6346 197.639 30.8608H191.118V29.9373H195.905C195.905 28.4547 195.848 27.1229 195.735 25.9419C195.622 24.7483 195.421 23.806 195.132 23.115C194.843 22.4114 194.422 22.0596 193.869 22.0596C193.354 22.0596 192.908 22.3988 192.531 23.0773C192.154 23.7432 191.865 24.7106 191.664 25.9796C191.463 27.236 191.363 28.7626 191.363 30.5592C191.363 31.7905 191.394 32.9904 191.457 34.1588C191.52 35.3273 191.639 36.3827 191.815 37.325C191.991 38.2673 192.255 39.0212 192.607 39.5865C192.959 40.1394 193.423 40.4158 194.001 40.4158C194.755 40.4158 195.333 40.1833 195.735 39.7185C196.15 39.2536 196.426 38.7824 196.564 38.305L197.394 38.7196C197.18 39.4358 196.759 40.064 196.131 40.6042C195.515 41.1445 194.768 41.4146 193.888 41.4146Z" fill="#2AC6A0"/>
<path d="M105.747 44.8001L105.015 43.6428H105.333L105.905 44.5586L106.464 43.6428H106.782L106.053 44.7971V45.6923H105.747V44.8001ZM106.943 44.6705C106.943 44.5105 106.967 44.3657 107.015 44.2362C107.063 44.1066 107.13 43.9962 107.215 43.9049C107.395 43.7145 107.628 43.6192 107.914 43.6192C108.202 43.6192 108.435 43.7145 108.612 43.9049C108.793 44.0983 108.883 44.3535 108.883 44.6705C108.883 44.9876 108.793 45.2418 108.612 45.4332C108.436 45.6216 108.203 45.7159 107.914 45.7159C107.627 45.7159 107.394 45.6216 107.215 45.4332C107.033 45.2408 106.943 44.9866 106.943 44.6705ZM107.237 44.669C107.237 44.8928 107.292 45.0779 107.401 45.2241C107.523 45.3871 107.695 45.4685 107.914 45.4685C108.134 45.4685 108.305 45.3871 108.427 45.2241C108.535 45.0798 108.589 44.8958 108.589 44.672C108.589 44.4462 108.535 44.2602 108.427 44.114C108.305 43.9491 108.134 43.8666 107.914 43.8666C107.694 43.8666 107.522 43.9491 107.401 44.114C107.292 44.2602 107.237 44.4452 107.237 44.669ZM110.049 45.4626C110.371 45.4626 110.532 45.2648 110.532 44.8693V43.6428H110.827V44.8693C110.827 45.1588 110.754 45.3758 110.607 45.5201C110.475 45.6506 110.289 45.7159 110.049 45.7159C109.679 45.7159 109.439 45.5632 109.329 45.258C109.29 45.151 109.27 45.0214 109.27 44.8693V43.6428H109.565V44.8693C109.565 45.2648 109.726 45.4626 110.049 45.4626ZM111.305 43.6428H111.887C112.275 43.6428 112.524 43.7576 112.636 43.9873C112.677 44.0717 112.697 44.167 112.697 44.273C112.697 44.378 112.682 44.4668 112.654 44.5395C112.626 44.6121 112.588 44.6744 112.538 44.7265C112.441 44.8266 112.309 44.8923 112.14 44.9238C112.21 45.1387 112.328 45.2869 112.495 45.3684C112.55 45.3959 112.596 45.4106 112.633 45.4126C112.696 45.4145 112.74 45.4126 112.766 45.4067V45.6923H112.7C112.479 45.6923 112.291 45.6138 112.136 45.4567C111.999 45.3203 111.907 45.1485 111.86 44.9414H111.6V45.6923H111.305V43.6428ZM111.868 44.7058C112.045 44.7058 112.177 44.6715 112.262 44.6028C112.348 44.5341 112.39 44.4271 112.39 44.2818C112.39 44.0884 112.301 43.9638 112.121 43.9078C112.058 43.8882 111.982 43.8784 111.893 43.8784H111.6V44.7058H111.868ZM114.07 43.6428H114.652C115.04 43.6428 115.289 43.7576 115.401 43.9873C115.442 44.0717 115.462 44.167 115.462 44.273C115.462 44.378 115.448 44.4668 115.419 44.5395C115.392 44.6121 115.353 44.6744 115.303 44.7265C115.207 44.8266 115.074 44.8923 114.905 44.9238C114.975 45.1387 115.093 45.2869 115.26 45.3684C115.315 45.3959 115.361 45.4106 115.398 45.4126C115.461 45.4145 115.505 45.4126 115.531 45.4067V45.6923H115.465C115.244 45.6923 115.056 45.6138 114.901 45.4567C114.764 45.3203 114.673 45.1485 114.625 44.9414H114.365V45.6923H114.07V43.6428ZM114.633 44.7058C114.81 44.7058 114.942 44.6715 115.027 44.6028C115.113 44.5341 115.155 44.4271 115.155 44.2818C115.155 44.0884 115.066 43.9638 114.886 43.9078C114.823 43.8882 114.747 43.8784 114.658 43.8784H114.365V44.7058H114.633ZM115.808 43.6428H117.131V43.899H116.102V44.5027H116.881V44.75H116.102V45.4332H117.131V45.6923H115.808V43.6428ZM118.246 43.6428H118.448L119.312 45.6923H119.006L118.798 45.177H117.888L117.682 45.6923H117.382L118.246 43.6428ZM118.704 44.9414L118.345 44.0433L117.984 44.9414H118.704ZM119.58 43.6428H119.874V45.4332H120.752V45.6923H119.58V43.6428ZM121.091 43.6428H122.414V43.899H121.385V44.5027H122.164V44.75H121.385V45.4332H122.414V45.6923H121.091V43.6428ZM124.019 45.5495C123.949 45.5986 123.86 45.6374 123.751 45.6658C123.642 45.6933 123.509 45.707 123.351 45.707C123.194 45.707 123.035 45.6977 122.875 45.6791V45.3934C123.018 45.4258 123.163 45.442 123.308 45.442C123.453 45.442 123.562 45.4342 123.635 45.4185C123.707 45.4018 123.766 45.3802 123.81 45.3537C123.891 45.3046 123.932 45.2408 123.932 45.1623C123.932 45.1014 123.917 45.0543 123.885 45.0209C123.835 44.9689 123.763 44.9213 123.669 44.8781L123.292 44.7058C123.162 44.645 123.07 44.5885 123.016 44.5365C122.901 44.4246 122.843 44.2951 122.843 44.1478C122.843 43.9967 122.908 43.8745 123.04 43.7812C123.184 43.6791 123.389 43.6281 123.655 43.6281C123.827 43.6281 123.984 43.6349 124.127 43.6487V43.9299C124.006 43.9024 123.871 43.8887 123.722 43.8887C123.573 43.8887 123.465 43.8965 123.398 43.9122C123.331 43.927 123.278 43.9461 123.24 43.9697C123.171 44.0129 123.136 44.0698 123.136 44.1405C123.136 44.2092 123.158 44.2661 123.202 44.3113C123.241 44.3495 123.313 44.3937 123.417 44.4438L123.804 44.6278C123.933 44.6887 124.023 44.7461 124.074 44.8001C124.126 44.8541 124.164 44.9085 124.188 44.9635C124.213 45.0175 124.225 45.0828 124.225 45.1593C124.225 45.2349 124.209 45.3066 124.175 45.3743C124.142 45.441 124.09 45.4994 124.019 45.5495ZM125.115 43.9019H124.498V43.6428H126.026V43.9019H125.409V45.6923H125.115V43.9019ZM127.051 43.6428H127.252L128.117 45.6923H127.81L127.603 45.177H126.693L126.487 45.6923H126.186L127.051 43.6428ZM127.509 44.9414L127.149 44.0433L126.789 44.9414H127.509ZM128.887 43.9019H128.27V43.6428H129.798V43.9019H129.181V45.6923H128.887V43.9019ZM130.146 43.6428H131.469V43.899H130.44V44.5027H131.219V44.75H130.44V45.4332H131.469V45.6923H130.146V43.6428ZM133.588 43.6428H133.79L134.654 45.6923H134.348L134.14 45.177H133.23L133.024 45.6923H132.724L133.588 43.6428ZM134.046 44.9414L133.687 44.0433L133.326 44.9414H134.046ZM136.459 45.6717C136.346 45.7012 136.197 45.7159 136.011 45.7159C135.827 45.7159 135.668 45.6928 135.536 45.6467C135.404 45.6005 135.291 45.5323 135.196 45.442C134.992 45.2516 134.889 44.9866 134.889 44.6469C134.889 44.4251 134.942 44.2337 135.048 44.0727C135.192 43.8538 135.412 43.7145 135.71 43.6546C135.801 43.6369 135.913 43.6281 136.045 43.6281C136.178 43.6281 136.292 43.6345 136.388 43.6472V43.9299C136.304 43.9083 136.183 43.8975 136.026 43.8975C135.87 43.8975 135.742 43.9152 135.642 43.9505C135.542 43.9859 135.459 44.0364 135.393 44.1022C135.261 44.2308 135.196 44.4124 135.196 44.6469C135.196 44.8855 135.261 45.0764 135.39 45.2197C135.531 45.3758 135.733 45.4538 135.995 45.4538C136.056 45.4538 136.113 45.4513 136.165 45.4464V44.6911H136.459V45.6717ZM136.933 43.6428H138.257V43.899H137.228V44.5027H138.006V44.75H137.228V45.4332H138.257V45.6923H136.933V43.6428ZM138.693 43.6428H138.905L139.975 45.1549L139.959 44.9429V43.6428H140.25V45.6923H140.04L139.146 44.4364L138.968 44.1802L138.984 44.4364V45.6923H138.693V43.6428ZM142.098 45.6805C142.001 45.6982 141.87 45.707 141.705 45.707C141.541 45.707 141.393 45.6845 141.26 45.6393C141.129 45.5942 141.015 45.5274 140.92 45.4391C140.716 45.2496 140.614 44.9856 140.614 44.6469C140.614 44.4261 140.667 44.2347 140.772 44.0727C140.914 43.8538 141.132 43.7145 141.427 43.6546C141.517 43.6369 141.625 43.6281 141.749 43.6281C141.875 43.6281 141.975 43.6349 142.051 43.6487V43.9299C141.982 43.9083 141.876 43.8975 141.732 43.8975C141.588 43.8975 141.466 43.9152 141.366 43.9505C141.266 43.9859 141.183 44.0364 141.118 44.1022C140.986 44.2308 140.92 44.4124 140.92 44.6469C140.92 44.8835 140.985 45.071 141.115 45.2094C141.255 45.3586 141.457 45.4332 141.72 45.4332C141.874 45.4332 142 45.4214 142.098 45.3979V45.6805ZM142.971 44.8001L142.239 43.6428H142.558L143.129 44.5586L143.688 43.6428H144.006L143.277 44.7971V45.6923H142.971V44.8001Z" fill="white"/>
<line x1="26" y1="45.7895" x2="98" y2="45.7895" stroke="#1E1E1E" stroke-width="1.26316"/>

<!-- ovo su kuce sa lijeve strane -->
<path d="M38.9474 45.4737V25.9758L47.7895 20.4637V25.8005V45.4737H38.9474Z" fill="white" stroke="#1E1E1E" stroke-width="0.631579"/>
<path d="M57.2632 45.4737V25.9758L48.4211 20.4637V25.8005V45.4737H57.2632Z" fill="#1E1E1E" stroke="#1E1E1E" stroke-width="0.631579"/>
<path d="M71.7895 45.4737V25.9758L80.6316 20.4637V25.8005V45.4737H71.7895Z" fill="white" stroke="#1E1E1E" stroke-width="0.631579"/>
<path d="M90.1053 45.4737V25.9758L81.2632 20.4637V25.8005V45.4737H90.1053Z" fill="#1E1E1E" stroke="#1E1E1E" stroke-width="0.631579"/>
<path d="M52.8421 45.4737V15.2319L64.2105 6.63473V15.0748V45.4737H52.8421Z" fill="white" stroke="#1E1E1E" stroke-width="0.631579"/>
<path d="M75.8948 45.1579V15.389L65.1579 7.26946V15.0748V45.1579H75.8948Z" fill="#1E1E1E" stroke="#1E1E1E" stroke-width="1.26316"/>
</svg>
